<svg width="30" height="30" viewBox="0 0 30 30" fill="none" xmlns="http://www.w3.org/2000/svg">
<circle cx="0.882353" cy="7.94119" r="0.882353" fill="black"/>
<circle cx="29.1176" cy="7.94119" r="0.882353" fill="black"/>
<circle cx="29.1176" cy="11.4705" r="0.882353" fill="black"/>
<circle cx="29.1176" cy="15" r="0.882353" fill="black"/>
<circle cx="29.1176" cy="18.5293" r="0.882353" fill="black"/>
<circle cx="29.1176" cy="22.0586" r="0.882353" fill="black"/>
<circle cx="4.41177" cy="6.1763" r="0.882353" fill="black"/>
<circle cx="18.5294" cy="6.1763" r="0.882353" fill="black"/>
<circle cx="18.5294" cy="9.70584" r="0.882353" fill="black"/>
<circle cx="18.5294" cy="13.2354" r="0.882353" fill="black"/>
<circle cx="18.5294" cy="16.7647" r="0.882353" fill="black"/>
<circle cx="18.5294" cy="20.2942" r="0.882353" fill="black"/>
<circle cx="18.5294" cy="23.8235" r="0.882353" fill="black"/>
<circle cx="18.5294" cy="27.3531" r="0.882353" fill="black"/>
<circle cx="25.5883" cy="6.1763" r="0.882353" fill="black"/>
<circle cx="25.5883" cy="9.70584" r="0.882353" fill="black"/>
<circle cx="25.5883" cy="13.2354" r="0.882353" fill="black"/>
<circle cx="25.5883" cy="16.7647" r="0.882353" fill="black"/>
<circle cx="25.5883" cy="20.2942" r="0.882353" fill="black"/>
<circle cx="25.5883" cy="23.8235" r="0.882353" fill="black"/>
<circle cx="4.41177" cy="9.70584" r="0.882353" fill="black"/>
<circle cx="4.41177" cy="13.2354" r="0.882353" fill="black"/>
<circle cx="4.41177" cy="16.7647" r="0.882353" fill="black"/>
<circle cx="4.41177" cy="20.2942" r="0.882353" fill="black"/>
<circle cx="4.41177" cy="23.8235" r="0.882353" fill="black"/>
<circle cx="7.94113" cy="4.41165" r="0.882353" fill="black"/>
<circle cx="22.0589" cy="4.41165" r="0.882353" fill="black"/>
<circle cx="22.0589" cy="7.94119" r="0.882353" fill="black"/>
<circle cx="22.0589" cy="11.4705" r="0.882353" fill="black"/>
<circle cx="22.0589" cy="15" r="0.882353" fill="black"/>
<circle cx="22.0589" cy="18.5293" r="0.882353" fill="black"/>
<circle cx="22.0589" cy="22.0586" r="0.882353" fill="black"/>
<circle cx="22.0589" cy="25.5882" r="0.882353" fill="black"/>
<circle cx="11.4705" cy="2.64725" r="0.882353" fill="black"/>
<circle cx="18.5294" cy="2.64725" r="0.882353" fill="black"/>
<circle cx="11.4705" cy="6.1763" r="0.882353" fill="black"/>
<circle cx="11.4705" cy="9.70584" r="0.882353" fill="black"/>
<circle cx="11.4705" cy="13.2354" r="0.882353" fill="black"/>
<circle cx="11.4705" cy="16.7647" r="0.882353" fill="black"/>
<circle cx="11.4705" cy="20.2942" r="0.882353" fill="black"/>
<circle cx="11.4705" cy="23.8235" r="0.882353" fill="black"/>
<circle cx="11.4705" cy="27.3531" r="0.882353" fill="black"/>
<circle cx="15" cy="0.882353" r="0.882353" fill="black"/>
<circle cx="15" cy="4.41165" r="0.882353" fill="black"/>
<circle cx="15" cy="7.94119" r="0.882353" fill="black"/>
<circle cx="15" cy="11.4705" r="0.882353" fill="black"/>
<circle cx="15" cy="15" r="0.882353" fill="black"/>
<circle cx="15" cy="18.5293" r="0.882353" fill="black"/>
<circle cx="15" cy="22.0586" r="0.882353" fill="black"/>
<circle cx="15" cy="25.5882" r="0.882353" fill="black"/>
<circle cx="15" cy="29.1177" r="0.882353" fill="black"/>
<circle cx="7.94113" cy="7.94119" r="0.882353" fill="black"/>
<circle cx="7.94113" cy="11.4705" r="0.882353" fill="black"/>
<circle cx="7.94113" cy="15" r="0.882353" fill="black"/>
<circle cx="7.94113" cy="18.5293" r="0.882353" fill="black"/>
<circle cx="7.94113" cy="22.0586" r="0.882353" fill="black"/>
<circle cx="7.94113" cy="25.5882" r="0.882353" fill="black"/>
<circle cx="0.882353" cy="11.4705" r="0.882353" fill="black"/>
<circle cx="0.882353" cy="15" r="0.882353" fill="black"/>
<circle cx="0.882353" cy="18.5293" r="0.882353" fill="black"/>
<circle cx="0.882353" cy="22.0586" r="0.882353" fill="black"/>
</svg>
