<svg width="152" height="152" viewBox="0 0 152 152" fill="none" xmlns="http://www.w3.org/2000/svg">
<circle cx="4.47059" cy="40.2347" r="4.47059" fill="black"/>
<circle cx="147.53" cy="40.2347" r="4.47059" fill="black"/>
<circle cx="147.53" cy="58.1168" r="4.47059" fill="black"/>
<circle cx="147.53" cy="75.9989" r="4.47059" fill="black"/>
<circle cx="147.53" cy="93.881" r="4.47059" fill="black"/>
<circle cx="147.53" cy="111.763" r="4.47059" fill="black"/>
<circle cx="22.3527" cy="31.2938" r="4.47059" fill="black"/>
<circle cx="93.8821" cy="31.2938" r="4.47059" fill="black"/>
<circle cx="93.8821" cy="49.1757" r="4.47059" fill="black"/>
<circle cx="93.8821" cy="67.0602" r="4.47059" fill="black"/>
<circle cx="93.8821" cy="84.9423" r="4.47059" fill="black"/>
<circle cx="93.8821" cy="102.824" r="4.47059" fill="black"/>
<circle cx="93.8821" cy="120.706" r="4.47059" fill="black"/>
<circle cx="93.8821" cy="138.589" r="4.47059" fill="black"/>
<circle cx="129.647" cy="31.2938" r="4.47059" fill="black"/>
<circle cx="129.647" cy="49.1757" r="4.47059" fill="black"/>
<circle cx="129.647" cy="67.0602" r="4.47059" fill="black"/>
<circle cx="129.647" cy="84.9423" r="4.47059" fill="black"/>
<circle cx="129.647" cy="102.824" r="4.47059" fill="black"/>
<circle cx="129.647" cy="120.706" r="4.47059" fill="black"/>
<circle cx="22.3527" cy="49.1757" r="4.47059" fill="black"/>
<circle cx="22.3527" cy="67.0602" r="4.47059" fill="black"/>
<circle cx="22.3527" cy="84.9423" r="4.47059" fill="black"/>
<circle cx="22.3527" cy="102.824" r="4.47059" fill="black"/>
<circle cx="22.3527" cy="120.706" r="4.47059" fill="black"/>
<circle cx="40.2347" cy="22.3527" r="4.47059" fill="black"/>
<circle cx="111.765" cy="22.3527" r="4.47059" fill="black"/>
<circle cx="111.765" cy="40.2347" r="4.47059" fill="black"/>
<circle cx="111.765" cy="58.1168" r="4.47059" fill="black"/>
<circle cx="111.765" cy="75.9989" r="4.47059" fill="black"/>
<circle cx="111.765" cy="93.881" r="4.47059" fill="black"/>
<circle cx="111.765" cy="111.763" r="4.47059" fill="black"/>
<circle cx="111.765" cy="129.645" r="4.47059" fill="black"/>
<circle cx="58.1174" cy="13.4139" r="4.47059" fill="black"/>
<circle cx="93.8821" cy="13.4139" r="4.47059" fill="black"/>
<circle cx="58.1174" cy="31.2938" r="4.47059" fill="black"/>
<circle cx="58.1174" cy="49.1757" r="4.47059" fill="black"/>
<circle cx="58.1174" cy="67.0602" r="4.47059" fill="black"/>
<circle cx="58.1174" cy="84.9423" r="4.47059" fill="black"/>
<circle cx="58.1174" cy="102.824" r="4.47059" fill="black"/>
<circle cx="58.1174" cy="120.706" r="4.47059" fill="black"/>
<circle cx="58.1174" cy="138.589" r="4.47059" fill="black"/>
<circle cx="76.0001" cy="4.47059" r="4.47059" fill="black"/>
<circle cx="76.0001" cy="22.3527" r="4.47059" fill="black"/>
<circle cx="76.0001" cy="40.2347" r="4.47059" fill="black"/>
<circle cx="76.0001" cy="58.1168" r="4.47059" fill="black"/>
<circle cx="76.0001" cy="75.9989" r="4.47059" fill="black"/>
<circle cx="76.0001" cy="93.881" r="4.47059" fill="black"/>
<circle cx="76.0001" cy="111.763" r="4.47059" fill="black"/>
<circle cx="76.0001" cy="129.645" r="4.47059" fill="black"/>
<circle cx="76.0001" cy="147.53" r="4.47059" fill="black"/>
<circle cx="40.2347" cy="40.2347" r="4.47059" fill="black"/>
<circle cx="40.2347" cy="58.1168" r="4.47059" fill="black"/>
<circle cx="40.2347" cy="75.9989" r="4.47059" fill="black"/>
<circle cx="40.2347" cy="93.881" r="4.47059" fill="black"/>
<circle cx="40.2347" cy="111.763" r="4.47059" fill="black"/>
<circle cx="40.2347" cy="129.645" r="4.47059" fill="black"/>
<circle cx="4.47059" cy="58.1168" r="4.47059" fill="black"/>
<circle cx="4.47059" cy="75.9989" r="4.47059" fill="black"/>
<circle cx="4.47059" cy="93.881" r="4.47059" fill="black"/>
<circle cx="4.47059" cy="111.763" r="4.47059" fill="black"/>
</svg>
